# xmcd
#
# Track frame offsets: 
#        150
#        14317
#        33680
#        48474
#        62769
#        80117
#        96609
#        121023
#        134411
#        149191
#        166888
#
# Disc length: 2624 seconds
#
# Revision: 0
# Processed by: cddbd v1.5.2PL0 Copyright (c) Steve Scherf et al.
# Submitted via: ExactAudioCopy v0.95a5
#
DISCID=a40a3e0b
DTITLE=Chris Kenney - Somthing So Right
DYEAR=1900
DGENRE=
TTITLE0=Trouble In Mind
TTITLE1=Diamonds and Rubies
TTITLE2=Lucky In Love
TTITLE3=Soulful Dress
TTITLE4=Lonesome Blues
TTITLE5=Baby (You've Got What It Takes)
TTITLE6=Something So Right
TTITLE7=Dream Baby
TTITLE8=How Much Does It Take
TTITLE9=Don't Want What You've Got
TTITLE10=Good Morning Heartache
EXTD=
EXTT0=
EXTT1=
EXTT2=
EXTT3=
EXTT4=
EXTT5=
EXTT6=
EXTT7=
EXTT8=
EXTT9=
EXTT10=
PLAYORDER=
